<svg width="20" height="20" viewBox="0 0 20 20" fill="none" xmlns="http://www.w3.org/2000/svg">
<path fill-rule="evenodd" clip-rule="evenodd" d="M10 20C8.61667 20 7.31667 19.7375 6.1 19.2125C4.88333 18.6875 3.825 17.975 2.925 17.075C2.025 16.175 1.3125 15.1167 0.7875 13.9C0.2625 12.6833 0 11.3833 0 10C0 8.61667 0.2625 7.31667 0.7875 6.1C1.3125 4.88333 2.025 3.825 2.925 2.925C3.825 2.025 4.88333 1.3125 6.1 0.7875C7.31667 0.2625 8.61667 0 10 0C11.3833 0 12.6833 0.2625 13.9 0.7875C15.1167 1.3125 16.175 2.025 17.075 2.925C17.975 3.825 18.6875 4.88333 19.2125 6.1C19.7375 7.31667 20 8.61667 20 10C20 11.3833 19.7375 12.6833 19.2125 13.9C18.6875 15.1167 17.975 16.175 17.075 17.075C16.175 17.975 15.1167 18.6875 13.9 19.2125C12.6833 19.7375 11.3833 20 10 20ZM6.7 13.5625C5.65 13.9375 4.7 14.45 3.85 15.1L5.35 16.5C6 16.9833 6.71667 17.3542 7.5 17.6125C8.28333 17.8708 9.11667 18 10 18C10.8833 18 11.7167 17.8708 12.5 17.6125C13.2833 17.3542 14 16.9833 14.65 16.5L16.15 15.1C15.3 14.45 14.35 13.9375 13.3 13.5625C12.25 13.1875 11.15 13 10 13C8.85 13 7.75 13.1875 6.7 13.5625ZM7.5125 9.9875C8.1875 10.6625 9.01667 11 10 11C10.9833 11 11.8125 10.6625 12.4875 9.9875C13.1625 9.3125 13.5 8.48333 13.5 7.5C13.5 6.51667 13.1625 5.6875 12.4875 5.0125C11.8125 4.3375 10.9833 4 10 4C9.01667 4 8.1875 4.3375 7.5125 5.0125C6.8375 5.6875 6.5 6.51667 6.5 7.5C6.5 8.48333 6.8375 9.3125 7.5125 9.9875Z" fill="#4A5568"/>
<path fill-rule="evenodd" clip-rule="evenodd" d="M3.85 15.1C4.7 14.45 5.65 13.9375 6.7 13.5625C7.75 13.1875 8.85 13 10 13C11.15 13 12.25 13.1875 13.3 13.5625C14.35 13.9375 15.3 14.45 16.15 15.1L14.65 16.5C14 16.9833 13.2833 17.3542 12.5 17.6125C11.7167 17.8708 10.8833 18 10 18C9.11667 18 8.28333 17.8708 7.5 17.6125C6.71667 17.3542 6 16.9833 5.35 16.5L3.85 15.1Z" fill="#FF5E5B"/>
<path d="M10 11C9.01667 11 8.1875 10.6625 7.5125 9.9875C6.8375 9.3125 6.5 8.48333 6.5 7.5C6.5 6.51667 6.8375 5.6875 7.5125 5.0125C8.1875 4.3375 9.01667 4 10 4C10.9833 4 11.8125 4.3375 12.4875 5.0125C13.1625 5.6875 13.5 6.51667 13.5 7.5C13.5 8.48333 13.1625 9.3125 12.4875 9.9875C11.8125 10.6625 10.9833 11 10 11Z" fill="#FF5E5B"/>
</svg>
